<?xml version="1.0" encoding="UTF-8"?>
<svg width="49px" height="43px" viewBox="0 0 49 43" version="1.1" xmlns="http://www.w3.org/2000/svg" xmlns:xlink="http://www.w3.org/1999/xlink">
    <!-- Generator: Sketch 59.1 (86144) - https://sketch.com -->
    <title>noun_Camera_2963434</title>
    <desc>Created with Sketch.</desc>
    <g id="Page-1" stroke="none" stroke-width="1" fill="none" fill-rule="evenodd">
        <g id="Artboard-Copy-3" transform="translate(-155.000000, -337.000000)" fill="#000000" fill-rule="nonzero">
            <g id="noun_Camera_2963434" transform="translate(155.000000, 337.000000)">
                <g id="Group">
                    <path d="M24.5,38.5180664 C16.7128906,38.5180664 10.3779297,32.1831055 10.3779297,24.3959961 C10.3779297,16.6088867 16.7128906,10.2739258 24.5,10.2739258 C32.2871094,10.2739258 38.6220703,16.6088867 38.6220703,24.3959961 C38.6220703,32.1831055 32.2871094,38.5180664 24.5,38.5180664 Z M24.5,11.2739258 C17.2646484,11.2739258 11.3779297,17.1606446 11.3779297,24.3959961 C11.3779297,31.6313476 17.2646484,37.5180664 24.5,37.5180664 C31.7353516,37.5180664 37.6220703,31.6313476 37.6220703,24.3959961 C37.6220703,17.1606446 31.7353516,11.2739258 24.5,11.2739258 Z" id="Shape"></path>
                    <path d="M24.5,34.2456055 C19.0693359,34.2456055 14.6503906,29.8266602 14.6503906,24.3959961 C14.6503906,18.965332 19.0693359,14.5463867 24.5,14.5463867 C29.9306641,14.5463867 34.3496094,18.965332 34.3496094,24.3959961 C34.3496094,29.8266602 29.9306641,34.2456055 24.5,34.2456055 Z M24.5,15.5463867 C19.6201172,15.5463867 15.6503906,19.5161133 15.6503906,24.3959961 C15.6503906,29.2758789 19.6201172,33.2456055 24.5,33.2456055 C29.3798828,33.2456055 33.3496094,29.2758789 33.3496094,24.3959961 C33.3496094,19.5161133 29.3798828,15.5463867 24.5,15.5463867 Z" id="Shape"></path>
                    <path d="M30.4746094,24.8959961 C30.1982422,24.8959961 29.9746094,24.6723633 29.9746094,24.3959961 C29.9746094,21.3774414 27.5185547,18.9213867 24.5,18.9213867 C24.2236328,18.9213867 24,18.6977539 24,18.4213867 C24,18.1450195 24.2236328,17.9213867 24.5,17.9213867 C28.0703125,17.9213867 30.9746094,20.8256836 30.9746094,24.3959961 C30.9746094,24.6723633 30.7509766,24.8959961 30.4746094,24.8959961 Z" id="Path"></path>
                    <path d="M43.9433594,42.2963867 L5.0576172,42.2963867 C2.2685547,42.2963867 0,40.027832 0,37.2397461 L0,11.5522461 C0,8.7641602 2.2685547,6.4956055 5.0576172,6.4956055 L12.4345703,6.4956055 C14.1162109,6.4956055 15.5986328,5.4838867 16.2119141,3.9174805 C16.9775391,1.9653321 18.8261719,0.7036133 20.921875,0.7036133 L28.078125,0.7036133 C30.1748047,0.7036133 32.0234375,1.9653321 32.7880859,3.9174805 L32.7880859,3.9174805 C33.4013672,5.4838868 34.883789,6.4956055 36.5654297,6.4956055 L43.9433594,6.4956055 C46.7314453,6.4956055 49,8.7641602 49,11.5522461 L49,37.2397461 C49,40.027832 46.7314453,42.2963867 43.9433594,42.2963867 Z M5.0576172,7.4956055 C2.8203125,7.4956055 1,9.3149414 1,11.5522461 L1,37.2397461 C1,39.4770508 2.8203125,41.2963867 5.0576172,41.2963867 L43.9433594,41.2963867 C46.1806641,41.2963867 48,39.4770508 48,37.2397461 L48,11.5522461 C48,9.3149414 46.1806641,7.4956055 43.9433594,7.4956055 L36.5654297,7.4956055 C34.46875,7.4956055 32.6210938,6.2338867 31.8564453,4.2827149 L31.8564453,4.2827149 C31.2441406,2.7153321 29.7607422,1.7036133 28.078125,1.7036133 L20.921875,1.7036133 C19.2402344,1.7036133 17.7568359,2.7163086 17.1435547,4.2827149 C16.3789063,6.2338868 14.53125,7.4956055 12.4345703,7.4956055 L5.0576172,7.4956055 Z" id="Shape"></path>
                    <path d="M8.1220703,7.4956055 C7.8457031,7.4956055 7.6220703,7.2719727 7.6220703,6.9956055 L7.6220703,3.6206055 C7.6220703,3.3442383 7.8457031,3.1206055 8.1220703,3.1206055 C8.3984375,3.1206055 8.6220703,3.3442383 8.6220703,3.6206055 L8.6220703,6.9956055 C8.6220703,7.2719727 8.3984375,7.4956055 8.1220703,7.4956055 Z" id="Path"></path>
                    <path d="M40.9970703,11.2739258 L37.1220703,11.2739258 C36.8457031,11.2739258 36.6220703,11.050293 36.6220703,10.7739258 C36.6220703,10.4975586 36.8457031,10.2739258 37.1220703,10.2739258 L40.9970703,10.2739258 C41.2734375,10.2739258 41.4970703,10.4975586 41.4970703,10.7739258 C41.4970703,11.050293 41.2734375,11.2739258 40.9970703,11.2739258 Z" id="Path"></path>
                </g>
            </g>
        </g>
    </g>
</svg>