<?xml version="1.0" encoding="UTF-8"?>
<svg width="38px" height="45px" viewBox="0 0 38 45" version="1.1" xmlns="http://www.w3.org/2000/svg" xmlns:xlink="http://www.w3.org/1999/xlink">
    <!-- Generator: Sketch 59.1 (86144) - https://sketch.com -->
    <title>noun_documents_2026206</title>
    <desc>Created with Sketch.</desc>
    <g id="Page-1" stroke="none" stroke-width="1" fill="none" fill-rule="evenodd">
        <g id="Artboard-Copy-2" transform="translate(-670.000000, -348.000000)" fill-rule="nonzero" stroke="#EEEEEE" stroke-width="0.7">
            <g id="noun_documents_2026206" transform="translate(671.000000, 349.000000)">
                <g id="Group">
                    <path d="M35.7663462,9.43944223 L26.9653846,0.274103586 C26.8009615,0.102788845 26.5759615,-8.8817842e-16 26.3423077,-8.8817842e-16 L12.3663462,-8.8817842e-16 C10.0644231,-8.8817842e-16 8.14326923,1.67031873 7.7625,3.84601594 C5.82403846,4.18007968 4.30096154,5.69621514 3.96346154,7.6063745 C1.72211538,7.94900398 -1.42108547e-14,9.87629482 -1.42108547e-14,12.1890438 L-1.42108547e-14,38.3488048 C-1.42108547e-14,40.9013944 2.08557692,43 4.66442308,43 L23.6336538,43 C25.9355769,43 27.8480769,41.338247 28.2375,39.1625498 C30.2192308,38.862749 31.7942308,37.3209163 32.1317308,35.3679283 C34.3298077,34.9910359 36,33.0894422 36,30.8023904 L36,10.0390438 C36,9.81633466 35.9221154,9.60219124 35.7663462,9.43944223 Z M27.1730769,3.02370518 L33.1269231,9.16533865 L29.2846154,9.16533865 C28.1423077,9.16533865 27.1730769,8.25737052 27.1730769,7.12669323 L27.1730769,3.02370518 L27.1730769,3.02370518 Z M23.6336538,41.2868526 L4.66442308,41.2868526 C3.0375,41.2868526 1.73076923,39.9591633 1.73076923,38.3488048 L1.73076923,12.1890438 C1.73076923,10.8527888 2.59615385,9.72211155 3.89423077,9.37948207 L3.89423077,34.5798805 C3.89423077,37.1324701 5.97980769,39.2310757 8.55865385,39.2310757 L26.4461538,39.2310757 C26.0740385,40.4302789 24.9576923,41.2868526 23.6336538,41.2868526 Z M27.5278846,37.5179283 L8.55865385,37.5179283 C6.94038462,37.5179283 5.625,36.190239 5.625,34.5798805 L5.625,8.42011952 C5.625,7.10956175 6.49038462,6.00458167 7.70192308,5.63625498 L7.70192308,30.8109562 C7.70192308,33.3635458 9.7875,35.4621514 12.3663462,35.4621514 L30.3403846,35.4621514 C29.9682692,36.6613546 28.8519231,37.5179283 27.5278846,37.5179283 Z M34.2692308,30.8109562 C34.2692308,32.4213147 32.9625,33.749004 31.3355769,33.749004 L12.3663462,33.749004 C10.7480769,33.749004 9.43269231,32.4213147 9.43269231,30.8109562 L9.43269231,4.65119522 C9.43269231,3.04940239 10.7394231,1.71314741 12.3663462,1.71314741 L25.4423077,1.71314741 L25.4423077,7.12669323 C25.4423077,9.20816733 27.1817308,10.8784861 29.2846154,10.8784861 L34.2692308,10.8784861 L34.2692308,30.8109562 Z" id="Shape" fill="#000000"></path>
                    <path d="M14.7288462,28.2669323 C14.2528846,28.2669323 13.8634615,28.6523904 13.8634615,29.123506 C13.8634615,29.5946215 14.2528846,29.9800797 14.7288462,29.9800797 L28.9817308,29.9800797 C29.4576923,29.9800797 29.8471154,29.5946215 29.8471154,29.123506 C29.8471154,28.6523904 29.4576923,28.2669323 28.9730769,28.2669323 L14.7288462,28.2669323 Z" id="Path" fill="#FE414D"></path>
                    <path d="M25.875,11.2982072 C25.5375,10.9641434 24.9923077,10.9641434 24.6548077,11.2982072 L16.9096154,18.9388446 C16.8144231,19.0330677 16.7365385,19.152988 16.6932692,19.2900398 L15.1355769,24.1553785 C15.0403846,24.463745 15.1182692,24.789243 15.3519231,25.0205179 C15.5163462,25.1832669 15.7413462,25.2689243 15.9663462,25.2689243 C16.0528846,25.2689243 16.1394231,25.2517928 16.2259615,25.2260956 L21.1413462,23.6928287 C21.2711538,23.65 21.3923077,23.5814741 21.4961538,23.4786853 L29.2153846,15.8123506 C29.5528846,15.4782869 29.5528846,14.9386454 29.2153846,14.6045817 L25.875,11.2982072 Z M17.2903846,23.1017928 L17.9134615,21.1488048 L19.2634615,22.4850598 L17.2903846,23.1017928 Z M20.8817308,21.662749 L18.7442308,19.547012 L25.2605769,13.1141434 L27.3807692,15.212749 L20.8817308,21.662749 Z" id="Shape" fill="#FE414D"></path>
                </g>
            </g>
        </g>
    </g>
</svg>