<?xml version="1.0" encoding="UTF-8"?>
<svg width="24px" height="27px" viewBox="0 0 24 27" version="1.1" xmlns="http://www.w3.org/2000/svg" xmlns:xlink="http://www.w3.org/1999/xlink">
    <!-- Generator: Sketch 59.1 (86144) - https://sketch.com -->
    <title>noun_Document_1653923</title>
    <desc>Created with Sketch.</desc>
    <g id="Page-1" stroke="none" stroke-width="1" fill="none" fill-rule="evenodd">
        <g id="Artboard-Copy-2" transform="translate(-544.000000, -681.000000)" fill="#000000" fill-rule="nonzero">
            <g id="noun_Document_1653923" transform="translate(544.000000, 681.000000)">
                <g id="Group">
                    <path d="M23.3793103,6.64595101 L18.4137931,6.64595101 C18.1852775,6.64595101 18,6.45996093 18,6.2305664 L18,2.90748948 C18,1.30416164 19.2993669,-0.000202832308 20.8965517,-0.000202832308 C22.4937365,-0.000202832308 23.7931034,1.30416164 23.7931034,2.90748948 L23.7931034,6.2305664 C23.7931034,6.45996093 23.607826,6.64595101 23.3793103,6.64595101 Z M18.8275862,5.81518178 L22.9655172,5.81518178 L22.9655172,2.90748948 C22.9655172,1.76234226 22.0373114,0.830566398 20.8965517,0.830566398 C19.755792,0.830566398 18.8275862,1.76234226 18.8275862,2.90748948 L18.8275862,5.81518178 Z" id="Shape"></path>
                    <path d="M15.9310345,26.5848182 C15.1537581,26.5848182 14.4261853,26.2815955 13.8824758,25.730927 C13.3365437,25.1877629 13.0344828,24.4573918 13.0344828,23.6771259 L13.0344828,20.354049 C13.0344828,20.1246545 13.2197602,19.9386644 13.4482759,19.9386644 C13.6767915,19.9386644 13.862069,20.1246545 13.862069,20.354049 L13.862069,23.6771259 C13.862069,24.234082 14.0772494,24.7549354 14.4678071,25.1433444 C14.8573546,25.5380409 15.3762123,25.754049 15.9310345,25.754049 C17.0717942,25.754049 18,24.8222731 18,23.6771259 L18,20.354049 C18,20.1246545 18.1852775,19.9386644 18.4137931,19.9386644 C18.6423087,19.9386644 18.8275862,20.1246545 18.8275862,20.354049 L18.8275862,23.6771259 C18.8275862,25.2804537 17.5282193,26.5848182 15.9310345,26.5848182 Z" id="Path"></path>
                    <path d="M3.51724138,6.64595101 C3.28872575,6.64595101 3.10344828,6.45996093 3.10344828,6.2305664 L3.10344828,2.90748948 C3.10344828,1.30416164 4.40281519,-0.000202832308 6,-0.000202832308 C6.22851563,-0.000202832308 6.4137931,0.185787249 6.4137931,0.415181783 C6.4137931,0.644576317 6.22851563,0.830566398 6,0.830566398 C4.85924032,0.830566398 3.93103448,1.76234226 3.93103448,2.90748948 L3.93103448,6.2305664 C3.93103448,6.45996093 3.74575701,6.64595101 3.51724138,6.64595101 Z" id="Path"></path>
                    <path d="M3.10344828,26.5848182 C2.32617186,26.5848182 1.59859912,26.2815955 1.05488954,25.730927 C0.508957448,25.1877629 0.206896552,24.4573918 0.206896552,23.6771259 L0.206896552,20.354049 C0.206896552,20.1246545 0.392174028,19.9386644 0.620689655,19.9386644 L5.5862069,19.9386644 C5.81472252,19.9386644 6,20.1246545 6,20.354049 C6,20.5834435 5.81472252,20.7694336 5.5862069,20.7694336 L1.03448276,20.7694336 L1.03448276,23.6771259 C1.03448276,24.234082 1.24966324,24.7549354 1.64022091,25.1433444 C2.02976834,25.5380409 2.54862608,25.754049 3.10344828,25.754049 C3.3319639,25.754049 3.51724138,25.9400391 3.51724138,26.1694336 C3.51724138,26.3988281 3.3319639,26.5848182 3.10344828,26.5848182 Z" id="Path"></path>
                    <path d="M18.4137931,20.7690279 C18.1852775,20.7690279 18,20.5830379 18,20.3536433 L18,6.2305664 C18,6.00117186 18.1852775,5.81518178 18.4137931,5.81518178 C18.6423087,5.81518178 18.8275862,6.00117186 18.8275862,6.2305664 L18.8275862,20.3536433 C18.8275862,20.5830379 18.6423087,20.7690279 18.4137931,20.7690279 Z" id="Path"></path>
                    <path d="M13.4482759,20.7690279 L3.51724138,20.7690279 C3.28872575,20.7690279 3.10344828,20.5830379 3.10344828,20.3536433 L3.10344828,6.2305664 C3.10344828,6.00117186 3.28872575,5.81518178 3.51724138,5.81518178 C3.74575701,5.81518178 3.93103448,6.00117186 3.93103448,6.2305664 L3.93103448,19.9382587 L13.4482759,19.9382587 C13.6767915,19.9382587 13.862069,20.1242488 13.862069,20.3536433 C13.862069,20.5830379 13.6767915,20.7690279 13.4482759,20.7690279 Z" id="Path"></path>
                    <path d="M15.9310345,26.5844126 L3.10344828,26.5844126 C2.87493265,26.5844126 2.68965517,26.3984225 2.68965517,26.1690279 C2.68965517,25.9396334 2.87493265,25.7536433 3.10344828,25.7536433 L15.9310345,25.7536433 C16.1595501,25.7536433 16.3448276,25.9396334 16.3448276,26.1690279 C16.3448276,26.3984225 16.1595501,26.5844126 15.9310345,26.5844126 Z" id="Path"></path>
                    <path d="M20.8965517,0.830566398 L6,0.830566398 C5.77148437,0.830566398 5.5862069,0.644576317 5.5862069,0.415181783 C5.5862069,0.185787249 5.77148437,-0.000202832308 6,-0.000202832308 L20.8965517,-0.000202832308 C21.1250674,-0.000202832308 21.3103448,0.185787249 21.3103448,0.415181783 C21.3103448,0.644576317 21.1250674,0.830566398 20.8965517,0.830566398 Z" id="Path"></path>
                    <path d="M14.6896552,14.8386418 L13.4482759,14.8386418 C13.2197602,14.8386418 13.0344828,14.6526518 13.0344828,14.4232572 C13.0344828,14.1938627 13.2197602,14.0078726 13.4482759,14.0078726 L14.2758621,14.0078726 L14.2758621,12.591549 C14.2758621,12.4814153 14.3195043,12.3757437 14.3970905,12.2978591 L15.2687231,11.4228741 L14.3970905,10.5478891 C14.3195043,10.4700045 14.2758621,10.3643329 14.2758621,10.2541992 L14.2758621,8.83787561 L13.4482759,8.83787561 C13.2197602,8.83787561 13.0344828,8.65188552 13.0344828,8.42249099 C13.0344828,8.19309646 13.2197602,8.00710638 13.4482759,8.00710638 L14.6896552,8.00710638 C14.9181708,8.00710638 15.1034483,8.19309646 15.1034483,8.42249099 L15.1034483,10.082204 L16.146417,11.1291842 C16.308055,11.2914438 16.308055,11.5543044 16.146417,11.716564 L15.1034483,12.7635442 L15.1034483,14.4232572 C15.1034483,14.6526517 14.9181708,14.8386418 14.6896552,14.8386418 Z" id="Path"></path>
                    <path d="M8.44416757,14.8386418 L7.20278826,14.8386418 C6.97427263,14.8386418 6.78899516,14.6526518 6.78899516,14.4232572 L6.78899516,12.7635442 L5.74602641,11.716564 C5.58438848,11.5543044 5.58438848,11.2914438 5.74602641,11.1291842 L6.78899516,10.082204 L6.78899516,8.42249099 C6.78899516,8.19309646 6.97427263,8.00710638 7.20278826,8.00710638 L8.44416757,8.00710638 C8.6726832,8.00710638 8.85796068,8.19309646 8.85796068,8.42249099 C8.85796068,8.65188552 8.6726832,8.83787561 8.44416757,8.83787561 L7.61658137,8.83787561 L7.61658137,10.2541992 C7.61658137,10.3643329 7.5729391,10.4700045 7.4953529,10.5478892 L6.62372036,11.4228741 L7.4953529,12.2978591 C7.5729391,12.3757437 7.61658137,12.4814153 7.61658137,12.591549 L7.61658137,14.0078727 L8.44416757,14.0078727 C8.6726832,14.0078727 8.85796068,14.1938627 8.85796068,14.4232573 C8.85796068,14.6526518 8.6726832,14.8386418 8.44416757,14.8386418 Z" id="Path"></path>
                    <g transform="translate(8.689655, 10.800000)" id="Path">
                        <path d="M0.562702055,0.890782738 C0.508957448,0.890782738 0.455010786,0.881850962 0.405509172,0.859630403 C0.35156251,0.837191988 0.310344828,0.801464835 0.268925131,0.761380723 C0.194369628,0.676637637 0.148908952,0.565099175 0.148908952,0.444628937 C0.148908952,0.328733515 0.194369628,0.212620237 0.268925131,0.132234111 C0.426118014,-0.0372520615 0.699286138,-0.0372520615 0.856479021,0.132234111 C0.931034524,0.212620237 0.9764952,0.328733515 0.9764952,0.444628937 C0.9764952,0.565099175 0.931034524,0.676637637 0.856479021,0.761380723 C0.777882538,0.846123809 0.670191269,0.890782738 0.562702055,0.890782738 Z"></path>
                        <path d="M2.27586207,0.890782738 C2.1681708,0.890782738 2.06068159,0.846123765 1.98208514,0.761380678 C1.90752964,0.676637637 1.86206897,0.565099175 1.86206897,0.444628892 C1.86206897,0.328733471 1.90752964,0.212620192 1.98208514,0.132234066 C2.13503503,-0.0372521062 2.41648709,-0.0372521062 2.56963903,0.132234066 C2.64399244,0.212620192 2.68965517,0.328733471 2.68965517,0.444628892 C2.68965517,0.565099131 2.64399244,0.676637592 2.56963899,0.761380678 C2.49104255,0.846123809 2.38335128,0.890782738 2.27586207,0.890782738 Z"></path>
                        <path d="M2.27586207,0.890782738 C2.1681708,0.890782738 2.06068159,0.846123765 1.98208514,0.761380678 C1.90752964,0.676637637 1.86206897,0.565099175 1.86206897,0.444628892 C1.86206897,0.328733471 1.90752964,0.212620192 1.98208514,0.132234066 C2.13503503,-0.0372521062 2.41648709,-0.0372521062 2.56963903,0.132234066 C2.64399244,0.212620192 2.68965517,0.328733471 2.68965517,0.444628892 C2.68965517,0.565099131 2.64399244,0.676637592 2.56963899,0.761380678 C2.49104255,0.846123809 2.38335128,0.890782738 2.27586207,0.890782738 Z"></path>
                        <path d="M3.98882003,0.890782738 C3.88133081,0.890782738 3.77363954,0.846123765 3.6950431,0.761380678 C3.62068966,0.676637637 3.57502692,0.565099175 3.57502692,0.444628892 C3.57502692,0.328733471 3.62068966,0.212620192 3.6950431,0.132234066 C3.85243804,-0.0326772892 4.12540411,-0.0372521062 4.28259699,0.132234066 C4.3571525,0.212620192 4.40261317,0.328733471 4.40261317,0.444628892 C4.40261317,0.560742171 4.3571525,0.676637592 4.28259699,0.761380678 C4.20400055,0.846123809 4.0965113,0.890782738 3.98882003,0.890782738 Z"></path>
                    </g>
                </g>
            </g>
        </g>
    </g>
</svg>