<?xml version="1.0" encoding="UTF-8"?>
<svg width="28px" height="32px" viewBox="0 0 28 32" version="1.1" xmlns="http://www.w3.org/2000/svg" xmlns:xlink="http://www.w3.org/1999/xlink">
    <!-- Generator: Sketch 59.1 (86144) - https://sketch.com -->
    <title>noun_Document_1653923</title>
    <desc>Created with Sketch.</desc>
    <g id="Page-1" stroke="none" stroke-width="1" fill="none" fill-rule="evenodd">
        <g id="Artboard-Copy-3" transform="translate(-1061.000000, -44.000000)" fill="#FFFFFF" fill-rule="nonzero">
            <g id="noun_Document_1653923" transform="translate(1061.000000, 44.000000)">
                <g id="Group">
                    <path d="M27.2758621,7.87668268 L21.4827586,7.87668268 C21.2161571,7.87668268 21,7.65624999 21,7.38437499 L21,3.44591345 C21,1.54567306 22.5159281,-0.000240393846 24.3793103,-0.000240393846 C26.2426926,-0.000240393846 27.7586207,1.54567306 27.7586207,3.44591345 L27.7586207,7.38437499 C27.7586207,7.65624999 27.5424636,7.87668268 27.2758621,7.87668268 Z M21.9655172,6.8920673 L26.7931034,6.8920673 L26.7931034,3.44591345 C26.7931034,2.08870193 25.7101966,0.984374991 24.3793103,0.984374991 C23.048424,0.984374991 21.9655172,2.08870193 21.9655172,3.44591345 L21.9655172,6.8920673 Z" id="Shape"></path>
                    <path d="M18.5862069,31.5079327 C17.6793844,31.5079327 16.8305495,31.1485577 16.1962217,30.4959135 C15.5593009,29.8521634 15.2068966,28.9865385 15.2068966,28.0617789 L15.2068966,24.1233173 C15.2068966,23.8514423 15.4230536,23.6310096 15.6896552,23.6310096 C15.9562567,23.6310096 16.1724138,23.8514423 16.1724138,24.1233173 L16.1724138,28.0617789 C16.1724138,28.721875 16.4234577,29.3391827 16.8791083,29.7995193 C17.3335803,30.2673077 17.9389143,30.5233173 18.5862069,30.5233173 C19.9170932,30.5233173 21,29.4189904 21,28.0617789 L21,24.1233173 C21,23.8514423 21.2161571,23.6310096 21.4827586,23.6310096 C21.7493602,23.6310096 21.9655172,23.8514423 21.9655172,24.1233173 L21.9655172,28.0617789 C21.9655172,29.9620192 20.4495892,31.5079327 18.5862069,31.5079327 Z" id="Path"></path>
                    <path d="M4.10344828,7.87668268 C3.83684671,7.87668268 3.62068966,7.65624999 3.62068966,7.38437499 L3.62068966,3.44591345 C3.62068966,1.54567306 5.13661772,-0.000240393846 7,-0.000240393846 C7.26660157,-0.000240393846 7.48275862,0.220192295 7.48275862,0.492067298 C7.48275862,0.763942302 7.26660157,0.984374991 7,0.984374991 C5.6691137,0.984374991 4.5862069,2.08870193 4.5862069,3.44591345 L4.5862069,7.38437499 C4.5862069,7.65624999 4.37004984,7.87668268 4.10344828,7.87668268 Z" id="Path"></path>
                    <path d="M3.62068966,31.5079327 C2.71386717,31.5079327 1.8650323,31.1485577 1.23070447,30.4959135 C0.59378369,29.8521634 0.24137931,28.9865385 0.24137931,28.0617789 L0.24137931,24.1233173 C0.24137931,23.8514423 0.457536366,23.6310096 0.724137931,23.6310096 L6.51724138,23.6310096 C6.78384294,23.6310096 7,23.8514423 7,24.1233173 C7,24.3951923 6.78384294,24.615625 6.51724138,24.615625 L1.20689655,24.615625 L1.20689655,28.0617789 C1.20689655,28.721875 1.45794045,29.3391827 1.91359106,29.7995193 C2.36806307,30.2673077 2.9733971,30.5233173 3.62068966,30.5233173 C3.88729122,30.5233173 4.10344828,30.74375 4.10344828,31.015625 C4.10344828,31.2875 3.88729122,31.5079327 3.62068966,31.5079327 Z" id="Path"></path>
                    <path d="M21.4827586,24.6151442 C21.2161571,24.6151442 21,24.3947115 21,24.1228365 L21,7.38437499 C21,7.11249999 21.2161571,6.8920673 21.4827586,6.8920673 C21.7493602,6.8920673 21.9655172,7.11249999 21.9655172,7.38437499 L21.9655172,24.1228365 C21.9655172,24.3947115 21.7493602,24.6151442 21.4827586,24.6151442 Z" id="Path"></path>
                    <path d="M15.6896552,24.6151442 L4.10344828,24.6151442 C3.83684671,24.6151442 3.62068966,24.3947115 3.62068966,24.1228365 L3.62068966,7.38437499 C3.62068966,7.11249999 3.83684671,6.8920673 4.10344828,6.8920673 C4.37004984,6.8920673 4.5862069,7.11249999 4.5862069,7.38437499 L4.5862069,23.6305288 L15.6896552,23.6305288 C15.9562567,23.6305288 16.1724138,23.8509615 16.1724138,24.1228365 C16.1724138,24.3947115 15.9562567,24.6151442 15.6896552,24.6151442 Z" id="Path"></path>
                    <path d="M18.5862069,31.5074519 L3.62068966,31.5074519 C3.35408809,31.5074519 3.13793103,31.2870192 3.13793103,31.0151442 C3.13793103,30.7432692 3.35408809,30.5228365 3.62068966,30.5228365 L18.5862069,30.5228365 C18.8528085,30.5228365 19.0689655,30.7432692 19.0689655,31.0151442 C19.0689655,31.2870192 18.8528085,31.5074519 18.5862069,31.5074519 Z" id="Path"></path>
                    <path d="M24.3793103,0.984374991 L7,0.984374991 C6.73339843,0.984374991 6.51724138,0.763942302 6.51724138,0.492067298 C6.51724138,0.220192295 6.73339843,-0.000240393846 7,-0.000240393846 L24.3793103,-0.000240393846 C24.6459119,-0.000240393846 24.862069,0.220192295 24.862069,0.492067298 C24.862069,0.763942302 24.6459119,0.984374991 24.3793103,0.984374991 Z" id="Path"></path>
                    <path d="M17.137931,17.5865385 L15.6896552,17.5865385 C15.4230536,17.5865385 15.2068966,17.3661058 15.2068966,17.0942308 C15.2068966,16.8223558 15.4230536,16.6019231 15.6896552,16.6019231 L16.6551724,16.6019231 L16.6551724,14.9233173 C16.6551724,14.7927885 16.7060884,14.6675481 16.7966056,14.5752404 L17.8135103,13.5382211 L16.7966056,12.5012019 C16.7060884,12.4088942 16.6551724,12.2836539 16.6551724,12.153125 L16.6551724,10.4745192 L15.6896552,10.4745192 C15.4230536,10.4745192 15.2068966,10.2540865 15.2068966,9.98221154 C15.2068966,9.71033654 15.4230536,9.48990385 15.6896552,9.48990385 L17.137931,9.48990385 C17.4045326,9.48990385 17.6206897,9.71033654 17.6206897,9.98221154 L17.6206897,11.9492789 L18.8374865,13.1901442 C19.0260641,13.3824519 19.0260641,13.6939904 18.8374865,13.8862981 L17.6206897,15.1271635 L17.6206897,17.0942308 C17.6206897,17.3661057 17.4045326,17.5865385 17.137931,17.5865385 Z" id="Path"></path>
                    <path d="M9.85152883,17.5865385 L8.40325297,17.5865385 C8.13665141,17.5865385 7.92049435,17.3661058 7.92049435,17.0942308 L7.92049435,15.1271635 L6.70369748,13.8862981 C6.5151199,13.6939904 6.5151199,13.3824519 6.70369748,13.1901442 L7.92049435,11.9492789 L7.92049435,9.98221154 C7.92049435,9.71033654 8.13665141,9.48990385 8.40325297,9.48990385 L9.85152883,9.48990385 C10.1181304,9.48990385 10.3342875,9.71033654 10.3342875,9.98221154 C10.3342875,10.2540865 10.1181304,10.4745192 9.85152883,10.4745192 L8.88601159,10.4745192 L8.88601159,12.153125 C8.88601159,12.2836539 8.83509562,12.4088943 8.74457838,12.501202 L7.72767375,13.5382212 L8.74457838,14.5752404 C8.83509562,14.6675481 8.88601159,14.7927885 8.88601159,14.9233174 L8.88601159,16.6019232 L9.85152883,16.6019232 C10.1181304,16.6019232 10.3342875,16.8223558 10.3342875,17.0942308 C10.3342875,17.3661058 10.1181304,17.5865385 9.85152883,17.5865385 Z" id="Path"></path>
                    <g transform="translate(10.137931, 12.800000)" id="Path">
                        <path d="M0.656485731,1.0557425 C0.59378369,1.0557425 0.530845917,1.0451567 0.473094034,1.01882122 C0.410156262,0.992227541 0.362068966,0.949884249 0.313745986,0.902377153 C0.226764566,0.801940903 0.17372711,0.669747171 0.17372711,0.526967629 C0.17372711,0.389610092 0.226764566,0.251994355 0.313745986,0.156721909 C0.497137683,-0.0441505915 0.815833828,-0.0441505915 0.999225524,0.156721909 C1.08620694,0.251994355 1.1392444,0.389610092 1.1392444,0.526967629 C1.1392444,0.669747171 1.08620694,0.801940903 0.999225524,0.902377153 C0.907529628,1.0028134 0.781889814,1.0557425 0.656485731,1.0557425 Z"></path>
                        <path d="M2.65517241,1.0557425 C2.5295326,1.0557425 2.40412852,1.00281335 2.31243267,0.9023771 C2.22545125,0.801940903 2.17241379,0.669747171 2.17241379,0.526967576 C2.17241379,0.389610039 2.22545125,0.251994302 2.31243267,0.156721856 C2.49087421,-0.0441506443 2.81923494,-0.0441506443 2.99791221,0.156721856 C3.08465785,0.251994302 3.13793103,0.389610039 3.13793103,0.526967576 C3.13793103,0.669747118 3.08465785,0.80194085 2.99791216,0.9023771 C2.90621631,1.0028134 2.7805765,1.0557425 2.65517241,1.0557425 Z"></path>
                        <path d="M2.65517241,1.0557425 C2.5295326,1.0557425 2.40412852,1.00281335 2.31243267,0.9023771 C2.22545125,0.801940903 2.17241379,0.669747171 2.17241379,0.526967576 C2.17241379,0.389610039 2.22545125,0.251994302 2.31243267,0.156721856 C2.49087421,-0.0441506443 2.81923494,-0.0441506443 2.99791221,0.156721856 C3.08465785,0.251994302 3.13793103,0.389610039 3.13793103,0.526967576 C3.13793103,0.669747118 3.08465785,0.80194085 2.99791216,0.9023771 C2.90621631,1.0028134 2.7805765,1.0557425 2.65517241,1.0557425 Z"></path>
                        <path d="M4.65362337,1.0557425 C4.52821928,1.0557425 4.40257947,1.00281335 4.31088362,0.9023771 C4.22413793,0.801940903 4.17086474,0.669747171 4.17086474,0.526967576 C4.17086474,0.389610039 4.22413793,0.251994302 4.31088362,0.156721856 C4.49451105,-0.0387286391 4.81297146,-0.0441506443 4.99636316,0.156721856 C5.08334458,0.251994302 5.13638203,0.389610039 5.13638203,0.526967576 C5.13638203,0.664583314 5.08334458,0.80194085 4.99636316,0.9023771 C4.90466731,1.0028134 4.77926318,1.0557425 4.65362337,1.0557425 Z"></path>
                    </g>
                </g>
            </g>
        </g>
    </g>
</svg>