<svg xmlns="http://www.w3.org/2000/svg" xmlns:xlink="http://www.w3.org/1999/xlink" version="1.1" x="0px" y="0px" viewBox="0 0 100 125" enable-background="new 0 0 100 100" xml:space="preserve"><path d="M9.332,71H8.467c-0.859,0-1.649-0.468-2.063-1.221C5.99,69.026,6.02,68.107,6.48,67.382l5.276-8.292  c0.436-0.683,1.178-1.09,1.986-1.09h6.974c1.543,0,2.93-0.976,3.451-2.428l2.838-7.909C24.146,46.992,22,44.259,22,41v-1h50.465  L74,37.697v-2.725L69.791,35c-1.896,0-3.67-0.735-5.001-2.07l-5.822-5.818c-0.877-0.884-1.001-2.264-0.297-3.285  c0.698-1.001,1.967-1.377,3.085-0.921l6.981,2.809l-1.003-6.154c-0.098-0.599,0.063-1.198,0.44-1.643s0.943-0.7,1.552-0.7  c1.085,0,2.361,0.679,2.968,1.58L80.468,30H84c2.937,0,5.349,1.332,6.971,3.851l3.763,5.548c1.028,1.519,1.13,3.392,0.271,5.013  C94.146,46.033,92.537,47,90.703,47h-2.916l-0.577,2.39c-0.699,3.865-3.25,7.038-6.715,8.61h7.352c1.684,0,3.246,0.836,4.18,2.237  l2.18,3.27c0.725,1.086,0.792,2.476,0.176,3.627C93.767,68.285,92.572,69,91.267,69c-1.105,0-2.162-0.528-2.826-1.413L86.5,65  H73.724c-1.255,0-2.44-0.609-3.171-1.629l-3.134-4.374L44.478,59l-7.185,4.59C35.85,64.512,34.182,65,32.468,65H16.535l-2.223,3.334  C13.2,70.003,11.338,71,9.332,71z M13.743,60c-0.122,0-0.233,0.062-0.3,0.165l-5.275,8.291c-0.098,0.154-0.049,0.292-0.012,0.361  C8.194,68.885,8.284,69,8.467,69h0.865c1.336,0,2.575-0.664,3.316-1.775L15.465,63h17.003c1.331,0,2.627-0.379,3.748-1.096  L43.894,57h24.544l3.74,5.206C72.534,62.703,73.112,63,73.724,63H87.5l2.54,3.387C90.328,66.771,90.787,67,91.267,67  c0.575,0,1.081-0.303,1.352-0.81c0.271-0.507,0.243-1.095-0.076-1.574l-2.18-3.27C89.801,60.503,88.86,60,87.847,60H77.602  l-2.899-2.748l2.097-0.264c4.286-0.54,7.685-3.759,8.455-8.011L86.213,45h4.49c1.081,0,2.028-0.57,2.534-1.525  c0.507-0.955,0.446-2.059-0.16-2.954l-3.775-5.568C88.018,32.959,86.288,32,84,32h-4.579l-8.377-12.073  c-0.245-0.363-0.894-0.709-1.317-0.709l1.556,9.677l-10.277-4.135c-0.252-0.104-0.534-0.016-0.689,0.207  c-0.156,0.226-0.128,0.535,0.069,0.733l5.82,5.816C67.159,32.474,68.43,33,69.784,33L76,32.96v5.343L73.535,42H24.091  c0.406,2.208,2.141,3.82,4.28,3.82h1.421l-3.741,10.427C25.244,58.492,23.101,60,20.717,60H13.743z M87.892,37.482L88.112,39h-1.937  c-0.86,0-1.59-0.632-1.714-1.483L84.241,36h1.938C87.039,36,87.768,36.631,87.892,37.482z M47,29H32v2h15V29z M47,23h-5v2h5V23z   M90,74H65v2h25V74z"/><text x="0" y="115" fill="#000000" font-size="12px" font-weight="light" font-family="'Helvetica Neue', Helvetica, Arial-Unicode, Arial, Sans-serif">Powered By - AI</text></svg>